# xmcd CD database file
#
# Track frame offsets:
#	183
#	11565
#	27535
#	42260
#	58380
#	70763
#	87458
#	100153
#	117235
#	131150
#	147428
#	160600
#	177328
#	189705
#
# Disc length: 2789 seconds
#
# Revision: 0
# Processed by: cddbd v1.4PL0 Copyright (c) Steve Scherf et al.
# Submitted via: CDex 1.50beta9
#
DISCID=cb0ae30e
DTITLE=Dominic Kirwan - Today
DYEAR=1993
DGENRE=Country
TTITLE0=Long Long Live Love
TTITLE1=Little Thing
TTITLE2=She's A Heartache
TTITLE3=Love Me
TTITLE4=Someone Had To Teach You
TTITLE5=She's In The Heart Of Me
TTITLE6=You're Such A Good Looking Woman
TTITLE7=I'm Gonna Miss You Girl
TTITLE8=Another Saturday Night
TTITLE9=If Tomorrow Never Comes
TTITLE10=She Put The Music In Me
TTITLE11=Somebody Must Feel
TTITLE12=What's Forever For
TTITLE13=I'll Walk Beside You (Duet With Tracy Elsdon )
EXTD=YEAR: 1993
EXTT0=
EXTT1=
EXTT2=
EXTT3=
EXTT4=
EXTT5=
EXTT6=
EXTT7=
EXTT8=
EXTT9=
EXTT10=
EXTT11=
EXTT12=
EXTT13=
PLAYORDER=
